<svg xmlns="http://www.w3.org/2000/svg" width="11.342" height="25.257" viewBox="0 0 11.342 25.257"><path d="M47.946,33.259c-.3-.563-.573-1.065-.837-1.571a9.429,9.429,0,0,1-.555-1.128.937.937,0,0,0-.825-.631c-.811-.133-1.625-.253-2.434-.4a1.874,1.874,0,0,1-.589-.237,3.776,3.776,0,0,1-1.172-1.1,1.124,1.124,0,0,1-.11-.29c.4-.09.751-.16,1.1-.249a1.762,1.762,0,0,1,1.562.3c.356.266.666.6,1,.89.272.237.555.462.834.693l.091-.061a3.658,3.658,0,0,0-.131-.42,13.113,13.113,0,0,1-.72-2.314c-.13-.528-.137-.539-.667-.593a6.523,6.523,0,0,1-2.175-.694,2.842,2.842,0,0,1-1.365-1.8c-.012-.036.016-.086.027-.134,1.674-.124,2.834.832,3.94,1.979a8.564,8.564,0,0,1,.245-3.285c-.277-.13-.52-.258-.773-.358a3.585,3.585,0,0,1-1.282-.958,3.148,3.148,0,0,1-.813-2.4c.01-.233.023-.465.052-.695a2.313,2.313,0,0,1,.1-.356c.091.007.133,0,.149.014a11.175,11.175,0,0,1,1.939,1.973c.316.528.56,1.1.856,1.691a1.879,1.879,0,0,0,.153-.26q.21-.511.4-1.031a.762.762,0,0,0,.079-.354,5.483,5.483,0,0,1,.317-2.419,3.126,3.126,0,0,1,1.371-1.885c.234-.138.429-.341.657-.49a.417.417,0,0,1,.324-.059.334.334,0,0,1,.129.27,19.8,19.8,0,0,1-.183,2.355,3.242,3.242,0,0,1-1.387,2.03c-.281.206-.563.412-.84.623a.361.361,0,0,0-.109.144c-.168.424-.331.85-.524,1.349a2.313,2.313,0,0,0,.379-.043,5.841,5.841,0,0,1,3.364-.108,2.216,2.216,0,0,1,.716.392c.188.139.167.261-.025.4a2.941,2.941,0,0,1-2.4.59c-.535-.12-1.069-.245-1.6-.366-.161-.037-.322-.069-.526-.112a5.6,5.6,0,0,0-.272,3.373,4.526,4.526,0,0,1,4.723-.746,8.911,8.911,0,0,1-2.11,1.477,5.2,5.2,0,0,1-2.544-.005,11.013,11.013,0,0,0,1.1,3.4,1.45,1.45,0,0,0,.237-.194c.188-.241.378-.482.543-.74a2.944,2.944,0,0,1,2.107-1.29c.4-.072.8-.159,1.2-.23.066-.012.174,0,.2.042a.485.485,0,0,1,.05.253c0,.039-.038.083-.067.117-.466.564-.919,1.139-1.405,1.684a2.1,2.1,0,0,1-1.171.57c-.455.1-.915.192-1.443.3a19.445,19.445,0,0,0,1.728,3.349,1.039,1.039,0,0,0,.458-.64A3.2,3.2,0,0,1,51.7,30.81a2.278,2.278,0,0,1,.485.014,3.129,3.129,0,0,1-.93,1.905,3.812,3.812,0,0,1-1.341.755c-.359.116-.71.258-1.089.4a2.313,2.313,0,0,0,.085.274q.74,1.61,1.483,3.216a7.882,7.882,0,0,1,.621,2,3.1,3.1,0,0,1,.026.323c-.186.122-.286.08-.333-.131a6.512,6.512,0,0,0-.222-.906q-.438-1.155-.926-2.29c-.3-.684-.621-1.355-.945-2.027-.135-.279-.22-.285-.549-.258a13.6,13.6,0,0,1-2.488.228,1.836,1.836,0,0,1-1.209-.579,4.372,4.372,0,0,1-.45-.531c-.154-.222-.1-.375.152-.46a2.725,2.725,0,0,1,.836-.206,4.644,4.644,0,0,1,2.848.658A.9.9,0,0,0,47.946,33.259Z" transform="translate(-40.901 -14.555)" fill="#161615" stroke="#161615" stroke-miterlimit="10" stroke-width="0.1"/></svg>