<svg xmlns="http://www.w3.org/2000/svg" xmlns:xlink="http://www.w3.org/1999/xlink" width="94.716" height="54.185" viewBox="0 0 94.716 54.185"><defs><clipPath id="b"><rect width="94.716" height="54.185"/></clipPath></defs><g id="a" clip-path="url(#b)"><path d="M57.292,48.89v-.072a.318.318,0,0,0-.356-.344c-.3,0-.356.172-.375.348a.215.215,0,0,0,0,.08,1.085,1.085,0,0,0,.275.528C57.14,49.293,57.288,49.094,57.292,48.89Z" fill="#fff"/><path d="M56.2,50.429c0,.244.252.352.715.352a1.4,1.4,0,0,0,.536-.1,8.122,8.122,0,0,1-.8-.695C56.3,50.129,56.2,50.217,56.2,50.429Z" fill="#fff"/><path d="M36.965,48.582l-.08.271-.42,1.092h.972l-.392-1.1Z" fill="#fff"/><path d="M19.594,45.3V53.92H75.121V45.3Zm5.539,5.659a.948.948,0,0,1-.7.252H22.626V48.05H24.3a.959.959,0,0,1,.692.237.756.756,0,0,1,.195.543.79.79,0,0,1-.2.587.567.567,0,0,1-.271.153.839.839,0,0,1,.459.231.783.783,0,0,1,.18.556A.834.834,0,0,1,25.133,50.956Zm2.76-.811v1.063h-.584V50.149l-1.219-2.1h.624L27.6,49.6l.951-1.547h.6Zm6.083,1.063-1.1-1.407-.288.277v1.13H32.01V48.05h.575v1.375l1.376-1.375h.683l-1.359,1.384,1.4,1.774Zm3.916,0-.279-.767H36.281l-.291.767H35.4l1.215-3.158h.724l1.155,3.158Zm4.037-1.418a.968.968,0,0,1-.808.315c-.08,0-1.024,0-1.024,0v1.107h-.579V48.05h1.607a.9.9,0,0,1,.788.292,1.24,1.24,0,0,1,.18.736A1.165,1.165,0,0,1,41.929,49.79Zm3.679-1.232h-1.04v2.65h-.587v-2.65H42.945V48.05h2.663Zm3.349,2.65H46.638V48.05h2.3v.516H47.2v.8h1.667v.519H47.2v.808h1.755Zm3.762,0h-.631L50.716,48.9v2.31h-.551V48.05h.679l1.323,2.243V48.05h.552Zm5.4,0c-.088-.059-.248-.175-.248-.175a2.085,2.085,0,0,1-.939.208c-.783,0-1.279-.18-1.311-.728a1.162,1.162,0,0,1,0-.132c.008-.328.291-.607.724-.744a1.233,1.233,0,0,1-.316-.767c0-.028,0-.1,0-.136.02-.384.328-.716.916-.716a.786.786,0,0,1,.886.7,1.092,1.092,0,0,1,0,.128,1.067,1.067,0,0,1-.695.92,7.993,7.993,0,0,0,.771.635.947.947,0,0,0,.268-.652h.528a1.387,1.387,0,0,1-.4.968s.4.316.627.487Zm4.95.044c-.876,0-1.232-.271-1.364-.675a1.261,1.261,0,0,1-.048-.32h.592a.7.7,0,0,0,.048.212c.1.212.336.3.772.3.519,0,.695-.16.695-.4,0-.288-.168-.383-.667-.488l-.464-.095c-.58-.109-.956-.4-.956-.9s.4-.876,1.3-.876c.751,0,1.115.264,1.271.664a1.006,1.006,0,0,1,.068.3h-.6a.468.468,0,0,0-.048-.168c-.1-.2-.292-.307-.712-.307-.535,0-.675.147-.675.355,0,.252.22.356.708.456.148.027.328.071.444.1.6.124.935.384.935.911C64.372,50.869,63.952,51.252,63.073,51.252Zm4.975-.467a1.355,1.355,0,0,1-1.176.467,1.378,1.378,0,0,1-1.179-.463,1.954,1.954,0,0,1-.295-1.171,1.832,1.832,0,0,1,.283-1.12,1.714,1.714,0,0,1,2.387-.016,1.807,1.807,0,0,1,.28,1.132A1.918,1.918,0,0,1,68.048,50.785Zm4.028.423h-.631L70.073,48.9v2.31h-.552V48.05h.68l1.323,2.243V48.05h.552Z" fill="#fff"/><path d="M24.453,49.31a.437.437,0,0,0,.132-.356.45.45,0,0,0-.124-.324.489.489,0,0,0-.324-.1h-.948V49.4h1A.431.431,0,0,0,24.453,49.31Z" fill="#fff"/><path d="M24.289,49.866h-1.1v.855h1.092a.55.55,0,0,0,.344-.1.39.39,0,0,0,.119-.312.422.422,0,0,0-.131-.344A.5.5,0,0,0,24.289,49.866Z" fill="#fff"/><path d="M41.009,48.562H40.1V49.6H41c.263,0,.391-.071.456-.18a.7.7,0,0,0,.052-.332.786.786,0,0,0-.052-.343C41.392,48.623,41.249,48.562,41.009,48.562Z" fill="#fff"/><path d="M66.872,48.506a.809.809,0,0,0-.668.256,1.383,1.383,0,0,0-.219.867,1.3,1.3,0,0,0,.264.909.821.821,0,0,0,.627.219.851.851,0,0,0,.648-.236,1.3,1.3,0,0,0,.244-.9,1.346,1.346,0,0,0-.22-.867A.841.841,0,0,0,66.872,48.506Z" fill="#fff"/><path d="M3.87,20.586H.191v-3.2H11.07v3.2H7.39v19.2H3.87Z" fill="#fff"/><path d="M14.367,17.386h3.52v9.12h3.775v-9.12h3.52v22.4h-3.52V29.706H17.887V39.785h-3.52Z" fill="#fff"/><path d="M29.407,17.386h9.6v3.2H32.927v5.92h4.831v3.2H32.927v6.879h6.079v3.2h-9.6Z" fill="#fff"/><path d="M54.141,17.386h3.521v9.12h3.775v-9.12h3.52v22.4h-3.52V29.706H57.662V39.785H54.141Z" fill="#fff"/><path d="M69.054,34.473V17.386h3.52V34.729c0,1.6.672,2.176,1.791,2.176s1.792-.575,1.792-2.176V17.386h3.392V34.473c0,3.584-1.791,5.632-5.247,5.632S69.054,38.057,69.054,34.473Z" fill="#fff"/><path d="M83.645,17.386h5.312c3.648,0,5.216,1.7,5.216,5.152v.9c0,2.3-.7,3.744-2.272,4.383v.064c1.888.64,2.624,2.305,2.624,4.672v1.92c0,3.456-1.824,5.312-5.344,5.312H83.645Zm4.9,9.12c1.311,0,2.111-.576,2.111-2.368V22.89c0-1.6-.544-2.3-1.792-2.3H87.166v5.92Zm.639,10.079c1.184,0,1.824-.544,1.824-2.208V32.425c0-2.08-.672-2.719-2.272-2.719H87.166v6.879Z" fill="#fff"/><path d="M26.188,11.737c-.608.514-1.272.49-2.018-.393-.687-.812-.736-1.5-.1-2.039a1.048,1.048,0,0,1,1.6.054l-.1.083A.94.94,0,0,0,24.143,9.4c-.58.491-.514,1.115.122,1.866.7.833,1.3.85,1.848.39a.944.944,0,0,0,.164-1.384l.094-.081A1.065,1.065,0,0,1,26.188,11.737Z" fill="#fff"/><path d="M30.021,6.89c.613.98.509,1.592-.187,2.026-.678.423-1.3.227-1.9-.726s-.517-1.571.191-2.013C28.865,5.718,29.441,5.961,30.021,6.89Zm-.1.066c-.533-.854-1.045-1.1-1.724-.678-.658.411-.694.972-.144,1.853.532.851,1.1,1.078,1.731.682S30.464,7.834,29.916,6.956Z" fill="#fff"/><path d="M33.028,6.981,31.691,4.12l.109-.051,1.289,2.76,1.529-.714.048.1Z" fill="#fff"/><path d="M38.308,3.161c.329,1.107.066,1.669-.72,1.9-.766.229-1.314-.126-1.634-1.2s-.083-1.653.718-1.891C37.5,1.722,37.995,2.11,38.308,3.161Zm-.12.035c-.288-.966-.715-1.339-1.482-1.111-.743.221-.927.751-.631,1.748.286.961.771,1.33,1.488,1.117S38.483,4.188,38.188,3.2Z" fill="#fff"/><path d="M43.239,3.687l-.088-.538a1.028,1.028,0,0,1-.886.709C41.458,3.971,41,3.6,40.833,2.424c-.135-.97.035-1.632.972-1.763a.994.994,0,0,1,1.236.889l-.127.018a.876.876,0,0,0-1.093-.8c-.737.1-1.018.538-.863,1.639.16,1.148.616,1.439,1.281,1.345a1.021,1.021,0,0,0,.874-.767,5.64,5.64,0,0,0-.087-.763l-1.152.161-.016-.111L43.129,2.1l.22,1.572Z" fill="#fff"/><path d="M47.733,3.44,46.006.383l-.038,3.034h-.116L45.891.258l.176,0,1.724,3.053.038-3.03.112,0L47.9,3.442Z" fill="#fff"/><path d="M50.58,3.585,51.018.457l1.824.255-.015.107L51.121.581l-.193,1.377,1.635.229-.015.1-1.634-.229-.2,1.434,1.722.24-.016.107Z" fill="#fff"/><path d="M58.948,5.532,57.9,5.1,59.1,2.181l1.022.417a1.045,1.045,0,0,1,.635.514c.114.263.022.665-.242,1.313s-.473,1.02-.729,1.149A.952.952,0,0,1,58.948,5.532ZM60.4,4.383c.25-.606.341-.988.243-1.223a.86.86,0,0,0-.542-.45l-.932-.381-1.11,2.717.922.376a.847.847,0,0,0,.743.054C59.965,5.351,60.13,5.018,60.4,4.383Z" fill="#fff"/><path d="M62.118,6.883l1.607-2.719,1.586.938-.055.093-1.483-.877-.708,1.2,1.421.839-.053.09-1.42-.84-.737,1.247,1.5.883-.055.093Z" fill="#fff"/><path d="M65.926,9.223l1.981-2.46L68,6.838,66.089,9.211,67.4,10.268l-.069.087Z" fill="#fff"/><path d="M69.163,11.914,71.315,9.6l.091.084L69.254,12Z" fill="#fff"/><path d="M47.946,33.259c-.3-.563-.573-1.065-.837-1.571a9.429,9.429,0,0,1-.555-1.128.937.937,0,0,0-.825-.631c-.811-.133-1.625-.253-2.434-.4a1.874,1.874,0,0,1-.589-.237,3.776,3.776,0,0,1-1.172-1.1,1.124,1.124,0,0,1-.11-.29c.4-.09.751-.16,1.1-.249a1.762,1.762,0,0,1,1.562.3c.356.266.666.6,1,.89.272.237.555.462.834.693l.091-.061a3.658,3.658,0,0,0-.131-.42,13.113,13.113,0,0,1-.72-2.314c-.13-.528-.137-.539-.667-.593a6.523,6.523,0,0,1-2.175-.694,2.842,2.842,0,0,1-1.365-1.8c-.012-.036.016-.086.027-.134,1.674-.124,2.834.832,3.94,1.979a8.564,8.564,0,0,1,.245-3.285c-.277-.13-.52-.258-.773-.358a3.585,3.585,0,0,1-1.282-.958,3.148,3.148,0,0,1-.813-2.4c.01-.233.023-.465.052-.695a2.313,2.313,0,0,1,.1-.356c.091.007.133,0,.149.014a11.175,11.175,0,0,1,1.939,1.973c.316.528.56,1.1.856,1.691a1.879,1.879,0,0,0,.153-.26q.21-.511.4-1.031a.762.762,0,0,0,.079-.354,5.483,5.483,0,0,1,.317-2.419,3.126,3.126,0,0,1,1.371-1.885c.234-.138.429-.341.657-.49a.417.417,0,0,1,.324-.059.334.334,0,0,1,.129.27,19.8,19.8,0,0,1-.183,2.355,3.242,3.242,0,0,1-1.387,2.03c-.281.206-.563.412-.84.623a.361.361,0,0,0-.109.144c-.168.424-.331.85-.524,1.349a2.313,2.313,0,0,0,.379-.043,5.841,5.841,0,0,1,3.364-.108,2.216,2.216,0,0,1,.716.392c.188.139.167.261-.025.4a2.941,2.941,0,0,1-2.4.59c-.535-.12-1.069-.245-1.6-.366-.161-.037-.322-.069-.526-.112a5.6,5.6,0,0,0-.272,3.373,4.526,4.526,0,0,1,4.723-.746,8.911,8.911,0,0,1-2.11,1.477,5.2,5.2,0,0,1-2.544-.005,11.013,11.013,0,0,0,1.1,3.4,1.45,1.45,0,0,0,.237-.194c.188-.241.378-.482.543-.74a2.944,2.944,0,0,1,2.107-1.29c.4-.072.8-.159,1.2-.23.066-.012.174,0,.2.042a.485.485,0,0,1,.05.253c0,.039-.038.083-.067.117-.466.564-.919,1.139-1.405,1.684a2.1,2.1,0,0,1-1.171.57c-.455.1-.915.192-1.443.3a19.445,19.445,0,0,0,1.728,3.349,1.039,1.039,0,0,0,.458-.64A3.2,3.2,0,0,1,51.7,30.81a2.278,2.278,0,0,1,.485.014,3.129,3.129,0,0,1-.93,1.905,3.812,3.812,0,0,1-1.341.755c-.359.116-.71.258-1.089.4a2.313,2.313,0,0,0,.085.274q.74,1.61,1.483,3.216a7.882,7.882,0,0,1,.621,2,3.1,3.1,0,0,1,.026.323c-.186.122-.286.08-.333-.131a6.512,6.512,0,0,0-.222-.906q-.438-1.155-.926-2.29c-.3-.684-.621-1.355-.945-2.027-.135-.279-.22-.285-.549-.258a13.6,13.6,0,0,1-2.488.228,1.836,1.836,0,0,1-1.209-.579,4.372,4.372,0,0,1-.45-.531c-.154-.222-.1-.375.152-.46a2.725,2.725,0,0,1,.836-.206,4.644,4.644,0,0,1,2.848.658.9.9,0,0,0,.194.066" fill="#fff"/><path d="M47.946,33.259c-.3-.563-.573-1.065-.837-1.571a9.429,9.429,0,0,1-.555-1.128.937.937,0,0,0-.825-.631c-.811-.133-1.625-.253-2.434-.4a1.874,1.874,0,0,1-.589-.237,3.776,3.776,0,0,1-1.172-1.1,1.124,1.124,0,0,1-.11-.29c.4-.09.751-.16,1.1-.249a1.762,1.762,0,0,1,1.562.3c.356.266.666.6,1,.89.272.237.555.462.834.693l.091-.061a3.658,3.658,0,0,0-.131-.42,13.113,13.113,0,0,1-.72-2.314c-.13-.528-.137-.539-.667-.593a6.523,6.523,0,0,1-2.175-.694,2.842,2.842,0,0,1-1.365-1.8c-.012-.036.016-.086.027-.134,1.674-.124,2.834.832,3.94,1.979a8.564,8.564,0,0,1,.245-3.285c-.277-.13-.52-.258-.773-.358a3.585,3.585,0,0,1-1.282-.958,3.148,3.148,0,0,1-.813-2.4c.01-.233.023-.465.052-.695a2.313,2.313,0,0,1,.1-.356c.091.007.133,0,.149.014a11.175,11.175,0,0,1,1.939,1.973c.316.528.56,1.1.856,1.691a1.879,1.879,0,0,0,.153-.26q.21-.511.4-1.031a.762.762,0,0,0,.079-.354,5.483,5.483,0,0,1,.317-2.419,3.126,3.126,0,0,1,1.371-1.885c.234-.138.429-.341.657-.49a.417.417,0,0,1,.324-.059.334.334,0,0,1,.129.27,19.8,19.8,0,0,1-.183,2.355,3.242,3.242,0,0,1-1.387,2.03c-.281.206-.563.412-.84.623a.361.361,0,0,0-.109.144c-.168.424-.331.85-.524,1.349a2.313,2.313,0,0,0,.379-.043,5.841,5.841,0,0,1,3.364-.108,2.216,2.216,0,0,1,.716.392c.188.139.167.261-.025.4a2.941,2.941,0,0,1-2.4.59c-.535-.12-1.069-.245-1.6-.366-.161-.037-.322-.069-.526-.112a5.6,5.6,0,0,0-.272,3.373,4.526,4.526,0,0,1,4.723-.746,8.911,8.911,0,0,1-2.11,1.477,5.2,5.2,0,0,1-2.544-.005,11.013,11.013,0,0,0,1.1,3.4,1.45,1.45,0,0,0,.237-.194c.188-.241.378-.482.543-.74a2.944,2.944,0,0,1,2.107-1.29c.4-.072.8-.159,1.2-.23.066-.012.174,0,.2.042a.485.485,0,0,1,.05.253c0,.039-.038.083-.067.117-.466.564-.919,1.139-1.405,1.684a2.1,2.1,0,0,1-1.171.57c-.455.1-.915.192-1.443.3a19.445,19.445,0,0,0,1.728,3.349,1.039,1.039,0,0,0,.458-.64A3.2,3.2,0,0,1,51.7,30.81a2.278,2.278,0,0,1,.485.014,3.129,3.129,0,0,1-.93,1.905,3.812,3.812,0,0,1-1.341.755c-.359.116-.71.258-1.089.4a2.313,2.313,0,0,0,.085.274q.74,1.61,1.483,3.216a7.882,7.882,0,0,1,.621,2,3.1,3.1,0,0,1,.026.323c-.186.122-.286.08-.333-.131a6.512,6.512,0,0,0-.222-.906q-.438-1.155-.926-2.29c-.3-.684-.621-1.355-.945-2.027-.135-.279-.22-.285-.549-.258a13.6,13.6,0,0,1-2.488.228,1.836,1.836,0,0,1-1.209-.579,4.372,4.372,0,0,1-.45-.531c-.154-.222-.1-.375.152-.46a2.725,2.725,0,0,1,.836-.206,4.644,4.644,0,0,1,2.848.658A.9.9,0,0,0,47.946,33.259Z" fill="#fff" stroke="#fff" stroke-miterlimit="10" stroke-width="0.1"/></g></svg>